<?xml version="1.0" encoding="UTF-8"?>
<svg width="600" height="400" viewBox="0 0 600 400" fill="none" xmlns="http://www.w3.org/2000/svg">
    <!-- Background Elements -->
    <circle cx="300" cy="200" r="150" fill="url(#gradient1)" opacity="0.1"/>
    <circle cx="320" cy="180" r="120" fill="url(#gradient2)" opacity="0.15"/>
    
    <!-- Main Bill/Invoice Paper -->
    <rect x="150" y="80" width="300" height="380" rx="15" fill="white" filter="url(#shadow)"/>
    <rect x="180" y="120" width="240" height="20" rx="4" fill="#E2E8F0"/>
    <rect x="180" y="160" width="180" height="15" rx="4" fill="#EDF2F7"/>
    <rect x="180" y="190" width="160" height="15" rx="4" fill="#EDF2F7"/>
    
    <!-- Bill Items -->
    <rect x="180" y="240" width="240" height="1" fill="#E2E8F0"/>
    <rect x="180" y="260" width="140" height="12" rx="2" fill="#CBD5E0"/>
    <rect x="180" y="290" width="120" height="12" rx="2" fill="#CBD5E0"/>
    <rect x="350" y="260" width="70" height="12" rx="2" fill="#00C6FF"/>
    <rect x="350" y="290" width="70" height="12" rx="2" fill="#00C6FF"/>
    
    <!-- Floating Elements -->
    <g transform="translate(420, 100)">
        <rect width="100" height="140" rx="10" fill="white" filter="url(#shadow)" opacity="0.9"/>
        <rect x="20" y="20" width="60" height="10" rx="2" fill="#E2E8F0"/>
        <rect x="20" y="40" width="40" height="10" rx="2" fill="#CBD5E0"/>
        <circle cx="50" cy="80" r="25" fill="url(#gradient2)"/>
    </g>
    
    <g transform="translate(80, 180)">
        <rect width="100" height="140" rx="10" fill="white" filter="url(#shadow)" opacity="0.9"/>
        <rect x="20" y="20" width="60" height="10" rx="2" fill="#E2E8F0"/>
        <rect x="20" y="40" width="40" height="10" rx="2" fill="#CBD5E0"/>
        <circle cx="50" cy="80" r="25" fill="url(#gradient1)"/>
    </g>
    
    <!-- Decorative Elements -->
    <circle cx="480" cy="320" r="8" fill="#00C6FF"/>
    <circle cx="120" cy="150" r="6" fill="#0072FF"/>
    <circle cx="450" cy="100" r="4" fill="#00C6FF"/>
    <circle cx="150" cy="350" r="4" fill="#0072FF"/>
    
    <!-- Definitions -->
    <defs>
        <linearGradient id="gradient1" x1="0" y1="0" x2="1" y2="1">
            <stop offset="0%" stop-color="#00C6FF"/>
            <stop offset="100%" stop-color="#0072FF"/>
        </linearGradient>
        
        <linearGradient id="gradient2" x1="1" y1="0" x2="0" y2="1">
            <stop offset="0%" stop-color="#00C6FF"/>
            <stop offset="100%" stop-color="#0072FF"/>
        </linearGradient>
        
        <filter id="shadow" x="-20" y="-20" width="140%" height="140%" filterUnits="userSpaceOnUse">
            <feDropShadow dx="0" dy="4" stdDeviation="15" flood-color="#000000" flood-opacity="0.1"/>
        </filter>
    </defs>
</svg> 